<?xml version="1.0" encoding="iso-8859-1"?>
<!-- Generator: Adobe Illustrator 17.1.0, SVG Export Plug-In . SVG Version: 6.00 Build 0)  -->
<!DOCTYPE svg PUBLIC "-//W3C//DTD SVG 1.1//EN" "http://www.w3.org/Graphics/SVG/1.1/DTD/svg11.dtd">
<svg version="1.1" id="Capa_1" xmlns="http://www.w3.org/2000/svg" xmlns:xlink="http://www.w3.org/1999/xlink" x="0px" y="0px"
	 viewBox="0 0 200 200" width="40" height="40" style="enable-background:new 0 0 200 200;" xml:space="preserve">
<g>
	<path style="fill:#555;" d="M146.222,52.778c0-25.526-20.674-46.222-46.222-46.222c-25.526,0-46.222,20.696-46.222,46.222
		S74.474,99,100,99C125.549,99,146.222,78.304,146.222,52.778z M65.333,53.778c0,0-1.333-13.111,8.111-23.111
		C80.091,37.33,100,53.778,134.667,53.778c0,19.117-15.551,34.667-34.667,34.667S65.333,72.894,65.333,53.778z"/>
	<path style="fill:#555;" d="M20.667,134.556V155v26.444c0,7.309,5.927,13.222,13.222,13.222h132.222
		c7.309,0,13.222-5.914,13.222-13.222V155v-20.444c0-14.604-11.828-26.444-26.444-26.444h-23.444c-1.657,0-3.745,1.118-4.664,2.496
		l-23.116,32.674c-0.919,1.379-2.409,1.379-3.328,0L75.22,110.607c-0.919-1.379-3.007-2.496-4.664-2.496H47.111
		C32.52,108.111,20.667,119.952,20.667,134.556z"/>
</g>
</svg>
