<?xml version="1.0" encoding="utf-8"?>
<!-- Generator: Adobe Illustrator 18.0.0, SVG Export Plug-In . SVG Version: 6.00 Build 0)  -->
<!DOCTYPE svg PUBLIC "-//W3C//DTD SVG 1.1//EN" "http://www.w3.org/Graphics/SVG/1.1/DTD/svg11.dtd">
<svg version="1.1" id="Capa_1" xmlns:sketch="http://www.bohemiancoding.com/sketch/ns"
	 xmlns="http://www.w3.org/2000/svg" xmlns:xlink="http://www.w3.org/1999/xlink" x="0px" y="0px" viewBox="0 0 36 36" width="32" height="32" xml:space="preserve">
<title>icon 111 search</title>
<desc>Created with Sketch.</desc>
<path fill="#555" d="M27,25l-5.6-5.6c1-1.4,1.6-3.1,1.6-4.9C23,9.8,19.2,6,14.5,6S6,9.8,6,14.5S9.8,23,14.5,23c1.8,0,3.5-0.6,4.9-1.6L25,27
	c0.5,0.5,1.4,0.5,2,0l0,0C27.6,26.4,27.6,25.6,27,25z M14.5,21C10.9,21,8,18.1,8,14.5S10.9,8,14.5,8s6.5,2.9,6.5,6.5
	S18.1,21,14.5,21z"/>
</svg>
